<?xml version="1.0" encoding="UTF-8" standalone="no"?>
<!-- Created with Inkscape (http://www.inkscape.org/) -->

<svg
   xmlns:dc="http://purl.org/dc/elements/1.1/"
   xmlns:cc="http://creativecommons.org/ns#"
   xmlns:rdf="http://www.w3.org/1999/02/22-rdf-syntax-ns#"
   xmlns:svg="http://www.w3.org/2000/svg"
   xmlns="http://www.w3.org/2000/svg"
   xmlns:sodipodi="http://sodipodi.sourceforge.net/DTD/sodipodi-0.dtd"
   xmlns:inkscape="http://www.inkscape.org/namespaces/inkscape"
   width="140"
   height="50"
   viewBox="0 0 140.00001 50.000001"
   id="svg2"
   version="1.1"
   inkscape:version="0.91 r13725"
   sodipodi:docname="logo.svg">
  <defs
     id="defs4" />
  <sodipodi:namedview
     id="base"
     pagecolor="#ffffff"
     bordercolor="#666666"
     borderopacity="1.0"
     inkscape:pageopacity="0.0"
     inkscape:pageshadow="2"
     inkscape:zoom="3.6150202"
     inkscape:cx="88.880825"
     inkscape:cy="22.199091"
     inkscape:document-units="px"
     inkscape:current-layer="layer1"
     showgrid="false"
     inkscape:window-width="1600"
     inkscape:window-height="843"
     inkscape:window-x="1920"
     inkscape:window-y="611"
     inkscape:window-maximized="1"
     fit-margin-top="0"
     fit-margin-left="0"
     fit-margin-right="0"
     fit-margin-bottom="0"
     units="px" />
  <metadata
     id="metadata7">
    <rdf:RDF>
      <cc:Work
         rdf:about="">
        <dc:format>image/svg+xml</dc:format>
        <dc:type
           rdf:resource="http://purl.org/dc/dcmitype/StillImage" />
        <dc:title />
      </cc:Work>
    </rdf:RDF>
  </metadata>
  <g
     inkscape:label="Calque 1"
     inkscape:groupmode="layer"
     id="layer1"
     transform="translate(-7.1124201e-6,-1002.3623)">
    <path
       style="opacity:1;fill:#ffffff;fill-opacity:1;fill-rule:nonzero;stroke:#202020;stroke-width:2.50184226;stroke-linecap:round;stroke-miterlimit:4;stroke-dasharray:none;stroke-dashoffset:0;stroke-opacity:1"
       id="path4157"
       sodipodi:type="arc"
       sodipodi:cx="25.000038"
       sodipodi:cy="1027.3622"
       sodipodi:rx="23.756077"
       sodipodi:ry="23.756077"
       sodipodi:start="0.87862143"
       sodipodi:end="0.87189494"
       sodipodi:open="true"
       d="m 40.161477,1045.651 a 23.756077,23.756077 0 0 1 -33.4247655,-3.0966 23.756077,23.756077 0 0 1 3.0404643,-33.43 23.756077,23.756077 0 0 1 33.4349912,2.9843 23.756077,23.756077 0 0 1 -2.928015,33.4399" />
    <path
       style="opacity:1;fill:#fffa8f;fill-opacity:1;fill-rule:nonzero;stroke:none;stroke-width:1.5;stroke-linecap:round;stroke-miterlimit:4;stroke-dasharray:none;stroke-dashoffset:0;stroke-opacity:1"
       id="path4180-6"
       sodipodi:type="arc"
       sodipodi:cx="22.347578"
       sodipodi:cy="1025.2222"
       sodipodi:rx="15.830246"
       sodipodi:ry="15.830246"
       sodipodi:start="0.87862143"
       sodipodi:end="0.87189494"
       sodipodi:open="true"
       d="m 32.450648,1037.4092 a 15.830246,15.830246 0 0 1 -22.273133,-2.0635 15.830246,15.830246 0 0 1 2.026063,-22.2766 15.830246,15.830246 0 0 1 22.279946,1.9886 15.830246,15.830246 0 0 1 -1.951129,22.2833" />
    <path
       style="fill:none;fill-rule:evenodd;stroke:#ff0000;stroke-width:1px;stroke-linecap:butt;stroke-linejoin:miter;stroke-opacity:1"
       d="M 22.683138,1047.6596 25,1027.3622"
       id="path4178"
       inkscape:connector-curvature="0"
       sodipodi:nodetypes="cc" />
    <path
       style="opacity:1;fill:#202020;fill-opacity:1;fill-rule:nonzero;stroke:none;stroke-width:15;stroke-linecap:round;stroke-miterlimit:4;stroke-dasharray:none;stroke-dashoffset:0;stroke-opacity:1"
       id="path4159"
       sodipodi:type="arc"
       sodipodi:cx="25"
       sodipodi:cy="1027.3622"
       sodipodi:rx="2"
       sodipodi:ry="2"
       sodipodi:start="0.87862143"
       sodipodi:end="0.87189494"
       sodipodi:open="true"
       d="m 26.276426,1028.9019 a 2,2 0 0 1 -2.813997,-0.2607 2,2 0 0 1 0.255974,-2.8144 2,2 0 0 1 2.814858,0.2512 2,2 0 0 1 -0.246507,2.8153" />
    <path
       style="fill:none;fill-rule:evenodd;stroke:#202020;stroke-width:1.5;stroke-linecap:butt;stroke-linejoin:miter;stroke-miterlimit:4;stroke-dasharray:none;stroke-opacity:1"
       d="M 25,1027.3622 12.309752,1011.5603"
       id="path4161"
       inkscape:connector-curvature="0"
       sodipodi:nodetypes="cc" />
    <path
       style="fill:none;fill-rule:evenodd;stroke:#202020;stroke-width:1.5;stroke-linecap:butt;stroke-linejoin:miter;stroke-miterlimit:4;stroke-dasharray:none;stroke-opacity:1"
       d="M 35.113981,1021.5359 25,1027.3622"
       id="path4161-4"
       inkscape:connector-curvature="0"
       sodipodi:nodetypes="cc" />
    <path
       style="opacity:1;fill:#87c3ff;fill-opacity:1;fill-rule:nonzero;stroke:none;stroke-width:1.5;stroke-linecap:round;stroke-miterlimit:4;stroke-dasharray:none;stroke-dashoffset:0;stroke-opacity:1"
       id="path4180"
       sodipodi:type="arc"
       sodipodi:cx="35.54266"
       sodipodi:cy="1037.0734"
       sodipodi:rx="6.7836328"
       sodipodi:ry="6.7836328"
       sodipodi:start="0.87862143"
       sodipodi:end="0.87189494"
       sodipodi:open="true"
       d="m 39.872063,1042.2958 a 6.7836328,6.7836328 0 0 1 -9.544562,-0.8843 6.7836328,6.7836328 0 0 1 0.868216,-9.546 6.7836328,6.7836328 0 0 1 9.547481,0.8522 6.7836328,6.7836328 0 0 1 -0.836105,9.5489" />
    <g
       transform="matrix(0.9554467,0,0,0.9554467,1.6169815,48.330408)"
       style="font-style:normal;font-weight:normal;font-size:13.75px;line-height:125%;font-family:Sans;letter-spacing:0px;word-spacing:0px;fill:#202020;fill-opacity:1;stroke:none;stroke-width:1px;stroke-linecap:butt;stroke-linejoin:miter;stroke-opacity:1"
       id="flowRoot4197">
      <path
         d="m 75.06543,1034.8582 0,-9.5654 -11.16211,0 0,9.5654 -2.797851,0 0,-20.6396 2.797851,0 0,8.7305 11.16211,0 0,-8.7305 2.797851,0 0,20.6396 -2.797851,0 z"
         style="font-style:normal;font-variant:normal;font-weight:normal;font-stretch:normal;font-size:30px;font-family:'Liberation Sans';-inkscape-font-specification:'Liberation Sans';fill:#202020;fill-opacity:1"
         id="path4153" />
      <path
         d="m 95.749023,1026.9188 q 0,4.1601 -1.831054,6.1963 -1.831055,2.0361 -5.317383,2.0361 -3.47168,0 -5.244141,-2.1094 -1.772461,-2.124 -1.772461,-6.123 0,-8.2031 7.104493,-8.2031 3.632812,0 5.346679,2.0068 1.713867,1.9922 1.713867,6.1963 z m -2.768554,0 q 0,-3.2813 -0.981446,-4.7608 -0.966796,-1.4941 -3.266601,-1.4941 -2.314453,0 -3.354492,1.5234 -1.025391,1.5088 -1.025391,4.7315 0,3.1347 1.010742,4.7168 1.025391,1.5674 3.208008,1.5674 2.373047,0 3.383789,-1.5235 1.025391,-1.5234 1.025391,-4.7607 z"
         style="font-style:normal;font-variant:normal;font-weight:normal;font-stretch:normal;font-size:30px;font-family:'Liberation Sans';-inkscape-font-specification:'Liberation Sans';fill:#202020;fill-opacity:1"
         id="path4155" />
      <path
         d="m 101.62305,1019.0086 0,10.0488 q 0,1.5674 0.30761,2.4317 0.30762,0.8642 0.98145,1.2451 0.67383,0.3809 1.97754,0.3809 1.9043,0 3.00293,-1.3037 1.09863,-1.3038 1.09863,-3.6182 l 0,-9.1846 2.63672,0 0,12.4658 q 0,2.7686 0.0879,3.3838 l -2.49023,0 q -0.0147,-0.073 -0.0293,-0.3955 -0.0147,-0.3222 -0.044,-0.7324 -0.0146,-0.4248 -0.0439,-1.582 l -0.044,0 q -0.9082,1.6406 -2.10937,2.3291 -1.18653,0.6738 -2.95899,0.6738 -2.60742,0 -3.82324,-1.2891 -1.20117,-1.3037 -1.20117,-4.292 l 0,-10.5615 2.65137,0 z"
         style="font-style:normal;font-variant:normal;font-weight:normal;font-stretch:normal;font-size:30px;font-family:'Liberation Sans';-inkscape-font-specification:'Liberation Sans';fill:#202020;fill-opacity:1"
         id="path4158" />
      <path
         d="m 115.80273,1034.8582 0,-12.1582 q 0,-1.6699 -0.0879,-3.6914 l 2.49024,0 q 0.11719,2.6953 0.11719,3.2373 l 0.0586,0 q 0.62988,-2.0361 1.45019,-2.7832 0.82032,-0.747 2.31446,-0.747 0.52734,0 1.06933,0.1464 l 0,2.417 q -0.52734,-0.1465 -1.40625,-0.1465 -1.64062,0 -2.50488,1.4209 -0.86426,1.4063 -0.86426,4.043 l 0,8.2617 -2.63672,0 z"
         style="font-style:normal;font-variant:normal;font-weight:normal;font-stretch:normal;font-size:30px;font-family:'Liberation Sans';-inkscape-font-specification:'Liberation Sans';fill:#202020;fill-opacity:1"
         id="path4160" />
      <path
         d="m 137.6582,1030.4783 q 0,2.2413 -1.69922,3.4571 -1.68457,1.2158 -4.73144,1.2158 -2.95899,0 -4.57031,-0.9668 -1.59668,-0.9814 -2.08008,-3.0469 l 2.3291,-0.4541 q 0.33691,1.2744 1.3916,1.875 1.05469,0.586 2.92969,0.586 2.00683,0 2.92969,-0.6153 0.9375,-0.6152 0.9375,-1.8457 0,-0.9375 -0.64453,-1.5234 -0.64454,-0.5859 -2.08008,-0.9668 l -1.88965,-0.4981 q -2.27051,-0.5859 -3.23731,-1.1425 -0.95214,-0.5713 -1.49414,-1.377 -0.54199,-0.8057 -0.54199,-1.9775 0,-2.168 1.53809,-3.2959 1.55273,-1.1426 4.51172,-1.1426 2.62207,0 4.16015,0.9228 1.55274,0.9229 1.96289,2.959 l -2.37304,0.293 q -0.21973,-1.0547 -1.18653,-1.6113 -0.95215,-0.5713 -2.56347,-0.5713 -1.78711,0 -2.63672,0.542 -0.84961,0.542 -0.84961,1.6406 0,0.6738 0.35156,1.1133 0.35156,0.4394 1.04004,0.7471 0.68848,0.3076 2.90039,0.8496 2.09473,0.5273 3.01758,0.9814 0.92285,0.4395 1.45019,0.9815 0.542,0.5419 0.83496,1.2597 0.29297,0.7031 0.29297,1.6113 z"
         style="font-style:normal;font-variant:normal;font-weight:normal;font-stretch:normal;font-size:30px;font-family:'Liberation Sans';-inkscape-font-specification:'Liberation Sans';fill:#202020;fill-opacity:1"
         id="path4162" />
    </g>
  </g>
</svg>
