<svg width="100%" height="100%" viewBox="0 0 142 142" version="1.1" xmlns="http://www.w3.org/2000/svg" style="fill-rule:evenodd;clip-rule:evenodd;stroke-linejoin:round;stroke-miterlimit:2;"><path d="M70.827,4.583c-37.499,0 -67.91,30.412 -67.91,67.929c0,30.011 19.458,55.469 46.446,64.451c3.398,0.625 4.637,-1.472 4.637,-3.273c0,-1.614 -0.059,-5.884 -0.092,-11.551c-18.892,4.103 -22.877,-9.107 -22.877,-9.107c-3.09,-7.848 -7.543,-9.937 -7.543,-9.937c-6.166,-4.212 0.467,-4.129 0.467,-4.129c6.817,0.48 10.403,7.002 10.403,7.002c6.058,10.379 15.897,7.38 19.767,5.642c0.617,-4.387 2.372,-7.381 4.311,-9.078c-15.081,-1.714 -30.937,-7.544 -30.937,-33.573c0,-7.414 2.648,-13.481 6.992,-18.227c-0.7,-1.718 -3.031,-8.627 0.667,-17.976c0,0 5.7,-1.827 18.675,6.963c5.416,-1.509 11.228,-2.26 17.002,-2.289c5.771,0.029 11.579,0.78 17.003,2.289c12.967,-8.79 18.658,-6.963 18.658,-6.963c3.706,9.349 1.376,16.258 0.679,17.976c4.353,4.746 6.98,10.813 6.98,18.227c0,26.096 -15.881,31.838 -31.007,33.518c2.434,2.098 4.607,6.243 4.607,12.577c0,9.082 -0.084,16.409 -0.084,18.636c0,1.818 1.226,3.932 4.67,3.269c26.967,-9.003 46.409,-34.444 46.409,-64.447c0,-37.517 -30.411,-67.929 -67.923,-67.929Z"/></svg>