<?xml version="1.0" encoding="UTF-8" standalone="no"?><!DOCTYPE svg PUBLIC "-//W3C//DTD SVG 1.1//EN" "http://www.w3.org/Graphics/SVG/1.1/DTD/svg11.dtd"><svg width="100%" height="100%" viewBox="0 0 553 239" version="1.1" xmlns="http://www.w3.org/2000/svg" xmlns:xlink="http://www.w3.org/1999/xlink" xml:space="preserve" xmlns:serif="http://www.serif.com/" style="fill-rule:evenodd;clip-rule:evenodd;stroke-linecap:round;stroke-linejoin:round;stroke-miterlimit:1.5;"><rect id="QueerMap-Logo-Horizontal" serif:id="QueerMap Logo Horizontal" x="0" y="0" width="552.917" height="238.333" style="fill:none;"/><g><g><g><path d="M81.155,99.94l-24.633,4.337" style="fill:none;stroke:#98fff1;stroke-width:16.67px;"/><path d="M130.421,91.265c-2.399,-13.585 -15.372,-22.656 -28.976,-20.261c-13.605,2.395 -22.689,15.35 -20.29,28.936l24.633,-4.338l24.633,-4.337Z" style="fill:#98fff1;stroke:#98fff1;stroke-width:16.67px;"/></g><path d="M77.001,122.47l33.32,44.859l15.947,-53.534" style="fill:none;stroke:#d797ff;stroke-width:16.67px;"/><path d="M297.745,167.709l-216.78,-0" style="fill:none;stroke:#d797ff;stroke-width:16.67px;"/></g><g transform="matrix(0.64988,0,0,0.648964,-836.187,-2271.22)"><g transform="matrix(102.637,0,0,102.637,1537.01,3685.42)"><path d="M0.211,-0.347c0,0.034 0.004,0.065 0.013,0.092c0.008,0.027 0.02,0.051 0.036,0.071c0.015,0.019 0.034,0.034 0.057,0.045c0.023,0.011 0.049,0.016 0.078,0.016c0.029,0 0.054,-0.005 0.078,-0.016c0.022,-0.011 0.042,-0.026 0.057,-0.045c0.016,-0.02 0.028,-0.044 0.036,-0.071c0.009,-0.027 0.013,-0.058 0.013,-0.092c-0,-0.034 -0.004,-0.065 -0.013,-0.093c-0.008,-0.027 -0.02,-0.051 -0.036,-0.071c-0.015,-0.019 -0.035,-0.034 -0.057,-0.045c-0.024,-0.011 -0.049,-0.016 -0.078,-0.016c-0.029,-0 -0.055,0.005 -0.078,0.016c-0.023,0.011 -0.042,0.027 -0.057,0.046c-0.016,0.02 -0.028,0.044 -0.037,0.071c-0.008,0.028 -0.012,0.059 -0.012,0.092Zm0.529,-0c-0,0.049 -0.006,0.092 -0.018,0.131c-0.012,0.039 -0.029,0.074 -0.05,0.103c-0.022,0.029 -0.048,0.054 -0.078,0.073c-0.03,0.019 -0.063,0.033 -0.099,0.042c0.003,0.013 0.011,0.024 0.022,0.032c0.011,0.009 0.026,0.016 0.043,0.021c0.017,0.005 0.037,0.009 0.061,0.012c0.023,0.003 0.047,0.005 0.074,0.007l-0.032,0.114c-0.052,-0.002 -0.096,-0.007 -0.133,-0.016c-0.037,-0.008 -0.069,-0.019 -0.094,-0.034c-0.026,-0.015 -0.046,-0.033 -0.061,-0.054c-0.015,-0.021 -0.027,-0.046 -0.035,-0.074c-0.041,-0.005 -0.08,-0.017 -0.115,-0.035c-0.035,-0.017 -0.066,-0.041 -0.092,-0.071c-0.026,-0.03 -0.046,-0.066 -0.061,-0.108c-0.015,-0.042 -0.022,-0.09 -0.022,-0.143c0,-0.059 0.009,-0.112 0.028,-0.157c0.019,-0.045 0.044,-0.082 0.076,-0.113c0.031,-0.031 0.068,-0.054 0.11,-0.069c0.041,-0.015 0.085,-0.023 0.131,-0.023c0.047,0 0.092,0.008 0.134,0.023c0.042,0.015 0.079,0.038 0.11,0.069c0.031,0.031 0.056,0.068 0.074,0.113c0.018,0.045 0.027,0.098 0.027,0.157Z" style="fill:#fff;fill-rule:nonzero;"/></g><g transform="matrix(102.637,0,0,102.637,1618.09,3685.42)"><path d="M0.519,-0.018c-0.025,0.007 -0.058,0.014 -0.098,0.021c-0.04,0.006 -0.082,0.009 -0.126,0.009c-0.045,0 -0.082,-0.006 -0.112,-0.018c-0.029,-0.012 -0.053,-0.029 -0.07,-0.051c-0.017,-0.021 -0.03,-0.047 -0.037,-0.077c-0.007,-0.03 -0.011,-0.063 -0.011,-0.099l-0,-0.293l0.149,0l-0,0.275c-0,0.048 0.006,0.083 0.019,0.104c0.013,0.021 0.036,0.032 0.071,0.032c0.011,-0 0.022,-0.001 0.034,-0.002c0.012,-0.001 0.023,-0.002 0.032,-0.003l-0,-0.406l0.149,0l-0,0.508Z" style="fill:#fff;fill-rule:nonzero;"/></g><g transform="matrix(102.637,0,0,102.637,1678.55,3685.42)"><path d="M0.045,-0.259c0,-0.047 0.007,-0.088 0.022,-0.123c0.014,-0.035 0.033,-0.064 0.056,-0.087c0.023,-0.023 0.05,-0.041 0.081,-0.053c0.03,-0.012 0.061,-0.018 0.093,-0.018c0.075,0 0.134,0.023 0.177,0.069c0.043,0.045 0.065,0.112 0.065,0.201c0,0.009 -0,0.018 -0.001,0.029c-0.001,0.01 -0.001,0.019 -0.002,0.027l-0.338,0c0.003,0.031 0.018,0.055 0.043,0.073c0.025,0.018 0.059,0.027 0.102,0.027c0.027,0 0.054,-0.002 0.08,-0.007c0.027,-0.005 0.048,-0.012 0.065,-0.019l0.02,0.121c-0.008,0.004 -0.019,0.008 -0.032,0.012c-0.013,0.004 -0.028,0.008 -0.044,0.011c-0.017,0.003 -0.034,0.005 -0.053,0.007c-0.019,0.002 -0.037,0.003 -0.056,0.003c-0.047,0 -0.089,-0.007 -0.124,-0.021c-0.035,-0.014 -0.064,-0.033 -0.087,-0.057c-0.022,-0.025 -0.04,-0.054 -0.051,-0.087c-0.011,-0.033 -0.016,-0.069 -0.016,-0.108Zm0.35,-0.057c-0.001,-0.013 -0.003,-0.025 -0.007,-0.037c-0.003,-0.012 -0.009,-0.023 -0.017,-0.032c-0.007,-0.009 -0.017,-0.017 -0.028,-0.023c-0.012,-0.006 -0.027,-0.009 -0.044,-0.009c-0.017,0 -0.031,0.003 -0.043,0.009c-0.012,0.005 -0.022,0.013 -0.03,0.022c-0.008,0.009 -0.014,0.02 -0.018,0.033c-0.005,0.012 -0.008,0.024 -0.01,0.037l0.197,0Z" style="fill:#fff;fill-rule:nonzero;"/></g><g transform="matrix(102.637,0,0,102.637,1738.49,3685.42)"><path d="M0.045,-0.259c0,-0.047 0.007,-0.088 0.022,-0.123c0.014,-0.035 0.033,-0.064 0.056,-0.087c0.023,-0.023 0.05,-0.041 0.081,-0.053c0.03,-0.012 0.061,-0.018 0.093,-0.018c0.075,0 0.134,0.023 0.177,0.069c0.043,0.045 0.065,0.112 0.065,0.201c0,0.009 -0,0.018 -0.001,0.029c-0.001,0.01 -0.001,0.019 -0.002,0.027l-0.338,0c0.003,0.031 0.018,0.055 0.043,0.073c0.025,0.018 0.059,0.027 0.102,0.027c0.027,0 0.054,-0.002 0.08,-0.007c0.027,-0.005 0.048,-0.012 0.065,-0.019l0.02,0.121c-0.008,0.004 -0.019,0.008 -0.032,0.012c-0.013,0.004 -0.028,0.008 -0.044,0.011c-0.017,0.003 -0.034,0.005 -0.053,0.007c-0.019,0.002 -0.037,0.003 -0.056,0.003c-0.047,0 -0.089,-0.007 -0.124,-0.021c-0.035,-0.014 -0.064,-0.033 -0.087,-0.057c-0.022,-0.025 -0.04,-0.054 -0.051,-0.087c-0.011,-0.033 -0.016,-0.069 -0.016,-0.108Zm0.35,-0.057c-0.001,-0.013 -0.003,-0.025 -0.007,-0.037c-0.003,-0.012 -0.009,-0.023 -0.017,-0.032c-0.007,-0.009 -0.017,-0.017 -0.028,-0.023c-0.012,-0.006 -0.027,-0.009 -0.044,-0.009c-0.017,0 -0.031,0.003 -0.043,0.009c-0.012,0.005 -0.022,0.013 -0.03,0.022c-0.008,0.009 -0.014,0.02 -0.018,0.033c-0.005,0.012 -0.008,0.024 -0.01,0.037l0.197,0Z" style="fill:#fff;fill-rule:nonzero;"/></g><g transform="matrix(102.637,0,0,102.637,1798.43,3685.42)"><path d="M0.387,-0.394c-0.013,-0.003 -0.029,-0.007 -0.047,-0.011c-0.018,-0.003 -0.037,-0.005 -0.058,-0.005c-0.009,0 -0.021,0.001 -0.034,0.003c-0.013,0.001 -0.022,0.003 -0.029,0.005l-0,0.402l-0.149,-0l-0,-0.498c0.027,-0.009 0.058,-0.018 0.094,-0.026c0.037,-0.009 0.077,-0.013 0.122,-0.013c0.008,0 0.018,0 0.029,0.002c0.011,0.001 0.023,0.002 0.034,0.004c0.011,0.001 0.023,0.003 0.034,0.006c0.011,0.002 0.021,0.005 0.029,0.008l-0.025,0.123Z" style="fill:#fff;fill-rule:nonzero;"/></g><g transform="matrix(102.637,0,0,102.637,1841.74,3685.42)"><path d="M0.264,-0.693c0.012,0.022 0.026,0.049 0.041,0.082c0.016,0.032 0.032,0.067 0.049,0.105c0.018,0.037 0.034,0.076 0.051,0.115c0.017,0.039 0.032,0.076 0.047,0.111c0.015,-0.035 0.03,-0.072 0.047,-0.111c0.017,-0.039 0.034,-0.078 0.051,-0.115c0.017,-0.038 0.033,-0.073 0.049,-0.105c0.015,-0.033 0.029,-0.06 0.041,-0.082l0.142,0c0.007,0.046 0.013,0.098 0.018,0.155c0.006,0.056 0.011,0.116 0.015,0.178c0.005,0.061 0.009,0.123 0.012,0.185c0.004,0.062 0.007,0.12 0.01,0.175l-0.152,0c-0.002,-0.067 -0.005,-0.141 -0.008,-0.22c-0.003,-0.079 -0.008,-0.159 -0.015,-0.24c-0.012,0.028 -0.025,0.059 -0.04,0.093c-0.015,0.034 -0.029,0.068 -0.043,0.102c-0.015,0.034 -0.029,0.067 -0.042,0.098c-0.013,0.031 -0.025,0.057 -0.034,0.079l-0.109,0c-0.009,-0.022 -0.021,-0.048 -0.034,-0.08c-0.013,-0.031 -0.027,-0.063 -0.041,-0.097c-0.015,-0.034 -0.029,-0.068 -0.044,-0.102c-0.015,-0.034 -0.028,-0.065 -0.04,-0.093c-0.007,0.081 -0.012,0.161 -0.015,0.24c-0.003,0.079 -0.006,0.153 -0.008,0.22l-0.152,-0c0.003,-0.055 0.006,-0.113 0.01,-0.175c0.003,-0.062 0.007,-0.124 0.012,-0.186c0.004,-0.061 0.009,-0.121 0.015,-0.178c0.005,-0.057 0.011,-0.108 0.018,-0.154l0.149,-0Z" style="fill:#fff;fill-rule:nonzero;"/></g><g transform="matrix(102.637,0,0,102.637,1933.8,3685.42)"><path d="M0.271,-0.104c0.015,-0 0.029,-0 0.042,-0.001c0.013,-0.001 0.024,-0.002 0.032,-0.003l0,-0.113c-0.006,-0.001 -0.015,-0.003 -0.027,-0.004c-0.012,-0.001 -0.023,-0.002 -0.033,-0.002c-0.014,0 -0.027,0.001 -0.039,0.003c-0.013,0.001 -0.024,0.004 -0.033,0.009c-0.009,0.005 -0.017,0.011 -0.022,0.019c-0.005,0.008 -0.008,0.018 -0.008,0.03c0,0.023 0.008,0.04 0.024,0.049c0.015,0.009 0.037,0.013 0.064,0.013Zm-0.012,-0.436c0.044,0 0.081,0.005 0.11,0.015c0.029,0.01 0.053,0.024 0.071,0.043c0.017,0.019 0.03,0.041 0.037,0.068c0.007,0.027 0.011,0.056 0.011,0.089l0,0.31c-0.021,0.005 -0.051,0.01 -0.089,0.017c-0.038,0.006 -0.084,0.009 -0.138,0.009c-0.034,0 -0.065,-0.003 -0.092,-0.009c-0.028,-0.006 -0.052,-0.016 -0.072,-0.029c-0.02,-0.014 -0.035,-0.032 -0.046,-0.054c-0.011,-0.022 -0.016,-0.049 -0.016,-0.081c0,-0.031 0.006,-0.057 0.019,-0.078c0.012,-0.021 0.028,-0.038 0.049,-0.051c0.021,-0.013 0.044,-0.022 0.071,-0.027c0.027,-0.006 0.054,-0.009 0.083,-0.009c0.019,0 0.037,0.001 0.052,0.003c0.015,0.001 0.027,0.003 0.036,0.006l0,-0.014c0,-0.025 -0.008,-0.046 -0.023,-0.061c-0.015,-0.015 -0.042,-0.023 -0.08,-0.023c-0.025,0 -0.05,0.002 -0.075,0.006c-0.025,0.003 -0.046,0.008 -0.064,0.015l-0.019,-0.12c0.009,-0.003 0.02,-0.005 0.033,-0.008c0.013,-0.003 0.027,-0.006 0.042,-0.008c0.015,-0.003 0.032,-0.005 0.049,-0.006c0.017,-0.002 0.034,-0.003 0.051,-0.003Z" style="fill:#fff;fill-rule:nonzero;"/></g><g transform="matrix(102.637,0,0,102.637,1990.56,3685.42)"><path d="M0.407,-0.259c0,-0.046 -0.01,-0.083 -0.031,-0.11c-0.021,-0.028 -0.051,-0.042 -0.092,-0.042c-0.013,-0 -0.026,0 -0.037,0.001c-0.011,0.001 -0.021,0.003 -0.028,0.004l-0,0.269c0.009,0.006 0.021,0.011 0.036,0.015c0.016,0.004 0.031,0.006 0.046,0.006c0.071,-0 0.106,-0.048 0.106,-0.143Zm0.152,-0.004c0,0.041 -0.005,0.078 -0.015,0.111c-0.01,0.033 -0.025,0.062 -0.044,0.086c-0.019,0.024 -0.043,0.043 -0.072,0.056c-0.029,0.013 -0.062,0.02 -0.099,0.02c-0.021,-0 -0.04,-0.002 -0.058,-0.006c-0.018,-0.004 -0.035,-0.01 -0.052,-0.017l0,0.198l-0.149,-0l0,-0.693c0.013,-0.004 0.029,-0.008 0.046,-0.011c0.017,-0.004 0.036,-0.007 0.055,-0.01c0.019,-0.003 0.038,-0.005 0.058,-0.006c0.019,-0.002 0.038,-0.003 0.056,-0.003c0.043,0 0.082,0.007 0.116,0.02c0.034,0.013 0.063,0.031 0.086,0.054c0.023,0.024 0.041,0.053 0.053,0.087c0.013,0.034 0.019,0.072 0.019,0.114Z" style="fill:#fff;fill-rule:nonzero;"/></g><g transform="matrix(51.3183,0,0,51.3183,1821.62,3749.57)"><path d="M0.154,-0.447c0.01,-0.006 0.025,-0.012 0.044,-0.019c0.018,-0.006 0.04,-0.009 0.063,-0.009c0.031,0 0.059,0.006 0.084,0.018c0.025,0.012 0.045,0.029 0.063,0.05c0.017,0.021 0.029,0.047 0.038,0.077c0.01,0.029 0.014,0.062 0.014,0.098c0,0.037 -0.005,0.071 -0.016,0.101c-0.011,0.03 -0.026,0.056 -0.045,0.077c-0.019,0.021 -0.043,0.037 -0.07,0.048c-0.027,0.011 -0.058,0.017 -0.091,0.017c-0.037,0 -0.069,-0.003 -0.098,-0.008c-0.029,-0.005 -0.052,-0.011 -0.069,-0.016l0,-0.666l0.083,-0.014l-0,0.246Zm-0,0.375c0.013,0.003 0.025,0.006 0.038,0.008c0.013,0.001 0.025,0.002 0.036,0.002c0.046,0 0.082,-0.014 0.108,-0.042c0.026,-0.029 0.039,-0.071 0.039,-0.128c0,-0.024 -0.002,-0.046 -0.007,-0.067c-0.005,-0.021 -0.012,-0.039 -0.022,-0.054c-0.01,-0.015 -0.023,-0.027 -0.038,-0.036c-0.016,-0.009 -0.035,-0.013 -0.057,-0.013c-0.019,0 -0.038,0.004 -0.056,0.012c-0.018,0.007 -0.032,0.015 -0.041,0.024l0,0.294Z" style="fill:#fff;fill-rule:nonzero;"/></g><g transform="matrix(51.3183,0,0,51.3183,1847.28,3749.57)"><path d="M0.051,0.087c0.006,0.003 0.014,0.006 0.025,0.008c0.011,0.002 0.022,0.003 0.031,0.003c0.033,0 0.058,-0.007 0.076,-0.022c0.019,-0.014 0.036,-0.037 0.051,-0.07c-0.037,-0.071 -0.072,-0.147 -0.105,-0.228c-0.033,-0.081 -0.06,-0.161 -0.081,-0.242l0.09,-0c0.007,0.027 0.014,0.055 0.023,0.086c0.01,0.031 0.02,0.063 0.031,0.096c0.011,0.033 0.023,0.065 0.037,0.098c0.013,0.033 0.026,0.065 0.041,0.095c0.011,-0.031 0.021,-0.061 0.03,-0.091c0.009,-0.03 0.018,-0.06 0.026,-0.091c0.008,-0.03 0.016,-0.061 0.024,-0.093c0.008,-0.031 0.016,-0.065 0.025,-0.1l0.086,-0c-0.021,0.087 -0.045,0.171 -0.072,0.252c-0.026,0.081 -0.054,0.157 -0.084,0.226c-0.011,0.027 -0.024,0.05 -0.037,0.069c-0.013,0.019 -0.027,0.035 -0.042,0.048c-0.015,0.013 -0.033,0.022 -0.052,0.028c-0.019,0.006 -0.041,0.009 -0.066,0.009c-0.013,-0 -0.027,-0.002 -0.042,-0.005c-0.015,-0.003 -0.025,-0.006 -0.03,-0.009l0.015,-0.067Z" style="fill:#fff;fill-rule:nonzero;"/></g><g transform="matrix(51.3183,0,0,51.3183,1898.6,3749.57)"><path d="M0.125,-0.231c0,0.024 0.003,0.046 0.008,0.067c0.005,0.02 0.012,0.038 0.022,0.053c0.01,0.015 0.023,0.026 0.039,0.035c0.015,0.009 0.034,0.013 0.056,0.013c0.019,0 0.038,-0.004 0.056,-0.011c0.018,-0.007 0.032,-0.015 0.041,-0.024l0,-0.293c-0.007,-0.003 -0.017,-0.005 -0.03,-0.007c-0.013,-0.002 -0.031,-0.003 -0.054,-0.003c-0.041,0 -0.074,0.015 -0.099,0.045c-0.026,0.029 -0.039,0.071 -0.039,0.125Zm-0.085,0c0,-0.037 0.005,-0.071 0.016,-0.101c0.011,-0.03 0.026,-0.055 0.045,-0.076c0.019,-0.021 0.043,-0.038 0.071,-0.049c0.027,-0.011 0.058,-0.017 0.091,-0.017c0.036,0 0.068,0.003 0.096,0.009c0.027,0.005 0.051,0.011 0.07,0.016l0,0.614l-0.083,0l0,-0.183c-0.01,0.007 -0.024,0.013 -0.043,0.02c-0.019,0.006 -0.04,0.009 -0.063,0.009c-0.031,0 -0.059,-0.006 -0.084,-0.018c-0.025,-0.012 -0.045,-0.029 -0.062,-0.05c-0.017,-0.021 -0.031,-0.047 -0.04,-0.076c-0.009,-0.03 -0.014,-0.063 -0.014,-0.098Z" style="fill:#fff;fill-rule:nonzero;"/></g><g transform="matrix(51.3183,0,0,51.3183,1924.26,3749.57)"><path d="M0.209,-0.536c-0.017,0 -0.032,-0.006 -0.045,-0.018c-0.013,-0.012 -0.019,-0.028 -0.019,-0.049c0,-0.021 0.006,-0.037 0.019,-0.049c0.013,-0.012 0.028,-0.018 0.045,-0.018c0.018,0 0.033,0.006 0.046,0.018c0.012,0.012 0.018,0.028 0.018,0.049c0,0.021 -0.006,0.037 -0.018,0.049c-0.013,0.012 -0.028,0.018 -0.046,0.018Zm-0.021,0.141l-0.134,0l0,-0.069l0.216,0l0,0.285c0,0.046 0.006,0.077 0.019,0.092c0.013,0.016 0.032,0.024 0.057,0.024c0.019,0 0.037,-0.002 0.054,-0.007c0.016,-0.005 0.029,-0.01 0.038,-0.015l0.012,0.07c-0.004,0.002 -0.01,0.004 -0.017,0.008c-0.007,0.002 -0.016,0.005 -0.025,0.008c-0.01,0.003 -0.021,0.005 -0.032,0.007c-0.012,0.002 -0.024,0.003 -0.037,0.003c-0.029,0 -0.054,-0.004 -0.073,-0.012c-0.019,-0.008 -0.035,-0.02 -0.046,-0.036c-0.012,-0.016 -0.02,-0.036 -0.025,-0.059c-0.005,-0.024 -0.007,-0.052 -0.007,-0.083l0,-0.216Z" style="fill:#fff;fill-rule:nonzero;"/></g><g transform="matrix(51.3183,0,0,51.3183,1949.92,3749.57)"><path d="M0.259,-0.475c0.063,0 0.111,0.02 0.145,0.059c0.034,0.039 0.051,0.098 0.051,0.177l0,0.029l-0.332,0c0.003,0.048 0.019,0.085 0.048,0.11c0.028,0.025 0.068,0.037 0.119,0.037c0.029,0 0.054,-0.002 0.075,-0.007c0.021,-0.005 0.036,-0.01 0.047,-0.015l0.011,0.07c-0.01,0.005 -0.028,0.011 -0.054,0.017c-0.026,0.006 -0.055,0.009 -0.088,0.009c-0.04,0 -0.075,-0.006 -0.106,-0.018c-0.03,-0.013 -0.055,-0.03 -0.075,-0.051c-0.02,-0.021 -0.035,-0.047 -0.045,-0.076c-0.01,-0.03 -0.015,-0.062 -0.015,-0.097c-0,-0.041 0.006,-0.077 0.019,-0.108c0.013,-0.031 0.029,-0.056 0.05,-0.076c0.021,-0.02 0.044,-0.035 0.07,-0.045c0.026,-0.01 0.053,-0.015 0.08,-0.015Zm0.112,0.198c-0,-0.039 -0.01,-0.07 -0.031,-0.093c-0.021,-0.023 -0.048,-0.035 -0.082,-0.035c-0.019,0 -0.037,0.004 -0.053,0.011c-0.015,0.007 -0.029,0.017 -0.04,0.029c-0.011,0.012 -0.02,0.026 -0.027,0.041c-0.007,0.015 -0.011,0.031 -0.013,0.047l0.246,0Z" style="fill:#fff;fill-rule:nonzero;"/></g><g transform="matrix(51.3183,0,0,51.3183,1975.58,3749.57)"><path d="M0.238,-0.255c0.018,0.013 0.038,0.03 0.061,0.05c0.023,0.021 0.045,0.043 0.067,0.066c0.023,0.023 0.044,0.047 0.064,0.072c0.02,0.024 0.036,0.046 0.048,0.067l-0.098,-0c-0.013,-0.021 -0.028,-0.042 -0.047,-0.064c-0.019,-0.021 -0.039,-0.042 -0.059,-0.062c-0.022,-0.02 -0.043,-0.038 -0.064,-0.055c-0.021,-0.017 -0.039,-0.031 -0.056,-0.042l-0,0.223l-0.083,-0l-0,-0.679l0.083,-0.014l-0,0.423c0.037,-0.032 0.073,-0.064 0.11,-0.095c0.037,-0.032 0.07,-0.065 0.099,-0.099l0.097,0c-0.029,0.034 -0.063,0.069 -0.103,0.105c-0.041,0.036 -0.08,0.071 -0.119,0.104Z" style="fill:#fff;fill-rule:nonzero;"/></g><g transform="matrix(51.3183,0,0,51.3183,2001.24,3749.57)"><path d="M0.429,-0.013c-0.018,0.005 -0.042,0.01 -0.072,0.015c-0.029,0.005 -0.064,0.008 -0.104,0.008c-0.035,0 -0.065,-0.005 -0.088,-0.015c-0.023,-0.011 -0.042,-0.025 -0.057,-0.045c-0.015,-0.019 -0.025,-0.041 -0.031,-0.067c-0.006,-0.026 -0.009,-0.055 -0.009,-0.086l0,-0.261l0.082,0l-0,0.243c-0,0.057 0.008,0.098 0.025,0.122c0.017,0.024 0.046,0.036 0.086,0.036c0.009,0 0.018,-0 0.027,-0.001c0.008,-0.001 0.017,-0.001 0.025,-0.002c0.008,-0.001 0.015,-0.002 0.021,-0.003c0.006,-0.001 0.01,-0.002 0.012,-0.003l-0,-0.392l0.083,0l-0,0.451Z" style="fill:#fff;fill-rule:nonzero;"/></g><g transform="matrix(51.3183,0,0,51.3183,2026.9,3749.57)"><path d="M0.154,-0.447c0.01,-0.006 0.025,-0.012 0.044,-0.019c0.018,-0.006 0.04,-0.009 0.063,-0.009c0.031,0 0.059,0.006 0.084,0.018c0.025,0.012 0.045,0.029 0.063,0.05c0.017,0.021 0.029,0.047 0.038,0.077c0.01,0.029 0.014,0.062 0.014,0.098c0,0.037 -0.005,0.071 -0.016,0.101c-0.011,0.03 -0.026,0.056 -0.045,0.077c-0.019,0.021 -0.043,0.037 -0.07,0.048c-0.027,0.011 -0.058,0.017 -0.091,0.017c-0.037,0 -0.069,-0.003 -0.098,-0.008c-0.029,-0.005 -0.052,-0.011 -0.069,-0.016l0,-0.666l0.083,-0.014l-0,0.246Zm-0,0.375c0.013,0.003 0.025,0.006 0.038,0.008c0.013,0.001 0.025,0.002 0.036,0.002c0.046,0 0.082,-0.014 0.108,-0.042c0.026,-0.029 0.039,-0.071 0.039,-0.128c0,-0.024 -0.002,-0.046 -0.007,-0.067c-0.005,-0.021 -0.012,-0.039 -0.022,-0.054c-0.01,-0.015 -0.023,-0.027 -0.038,-0.036c-0.016,-0.009 -0.035,-0.013 -0.057,-0.013c-0.019,0 -0.038,0.004 -0.056,0.012c-0.018,0.007 -0.032,0.015 -0.041,0.024l0,0.294Z" style="fill:#fff;fill-rule:nonzero;"/></g></g></g></svg>