<?xml version="1.0" encoding="UTF-8" standalone="no"?><!DOCTYPE svg PUBLIC "-//W3C//DTD SVG 1.1//EN" "http://www.w3.org/Graphics/SVG/1.1/DTD/svg11.dtd"><svg width="100%" height="100%" viewBox="0 0 336 128" version="1.1" xmlns="http://www.w3.org/2000/svg" xmlns:xlink="http://www.w3.org/1999/xlink" xml:space="preserve" xmlns:serif="http://www.serif.com/" style="fill-rule:evenodd;clip-rule:evenodd;stroke-linecap:round;stroke-linejoin:round;stroke-miterlimit:1.5;"><rect id="_-Logo---Horizontal---Colored---Transparent---Light-on-Dark" serif:id=" Logo - Horizontal - Colored - Transparent - Light on Dark" x="0.816" y="0" width="334.8" height="128" style="fill:none;"/><g><g><path d="M50.481,52.281l-15.017,2.643" style="fill:none;stroke:#98fff1;stroke-width:10px;"/><path d="M80.514,46.993c-1.462,-8.28 -9.371,-13.809 -17.664,-12.349c-8.294,1.46 -13.831,9.356 -12.369,17.637l15.017,-2.644l15.016,-2.644Z" style="fill:#98fff1;stroke:#98fff1;stroke-width:10px;"/><path d="M47.949,66.013l20.312,27.343l9.721,-32.63" style="fill:none;stroke:#d797ff;stroke-width:10px;"/><path d="M182.517,93.588l-132.152,-0" style="fill:none;stroke:#d797ff;stroke-width:10px;"/></g><g><path id="by-qiekub" serif:id="by qiekub" d="M216.071,81.103c0.203,-0.121 0.498,-0.247 0.884,-0.375c0.387,-0.129 0.817,-0.193 1.291,-0.193c0.637,0 1.207,0.122 1.708,0.365c0.502,0.244 0.925,0.582 1.271,1.015c0.346,0.433 0.61,0.951 0.793,1.553c0.183,0.603 0.274,1.269 0.274,2c0,0.758 -0.108,1.441 -0.325,2.05c-0.217,0.609 -0.522,1.127 -0.915,1.553c-0.393,0.426 -0.867,0.754 -1.423,0.984c-0.556,0.231 -1.173,0.346 -1.85,0.346c-0.746,-0 -1.41,-0.055 -1.993,-0.163c-0.582,-0.108 -1.05,-0.216 -1.402,-0.325l-0,-13.519l1.687,-0.284l-0,4.993Zm-0,7.613c0.258,0.067 0.515,0.118 0.773,0.152c0.257,0.034 0.501,0.051 0.731,0.051c0.936,-0 1.668,-0.288 2.196,-0.863c0.529,-0.575 0.793,-1.438 0.793,-2.588c0,-0.487 -0.047,-0.944 -0.142,-1.37c-0.095,-0.427 -0.244,-0.792 -0.447,-1.097c-0.204,-0.304 -0.465,-0.544 -0.783,-0.72c-0.319,-0.176 -0.702,-0.264 -1.149,-0.264c-0.393,-0 -0.772,0.078 -1.138,0.233c-0.366,0.156 -0.644,0.322 -0.834,0.498l-0,5.968Z" style="fill:#fff;fill-opacity:0.6;fill-rule:nonzero;"/><path d="M224.142,91.943c0.122,0.068 0.295,0.122 0.519,0.163c0.223,0.04 0.43,0.061 0.62,0.061c0.664,-0 1.183,-0.146 1.555,-0.437c0.373,-0.291 0.715,-0.768 1.027,-1.431c-0.759,-1.434 -1.471,-2.974 -2.135,-4.618c-0.664,-1.644 -1.213,-3.285 -1.647,-4.923l1.83,0c0.136,0.542 0.295,1.127 0.478,1.756c0.183,0.63 0.39,1.276 0.62,1.939c0.231,0.663 0.478,1.329 0.742,1.999c0.264,0.67 0.546,1.31 0.844,1.919c0.217,-0.623 0.42,-1.239 0.61,-1.848c0.19,-0.609 0.366,-1.221 0.528,-1.837c0.163,-0.615 0.326,-1.245 0.488,-1.888c0.163,-0.642 0.332,-1.322 0.509,-2.04l1.748,0c-0.434,1.76 -0.918,3.465 -1.454,5.116c-0.535,1.651 -1.108,3.18 -1.718,4.587c-0.23,0.542 -0.477,1.009 -0.742,1.401c-0.264,0.393 -0.552,0.717 -0.864,0.975c-0.311,0.257 -0.664,0.446 -1.057,0.568c-0.393,0.122 -0.84,0.183 -1.342,0.183c-0.257,-0 -0.538,-0.034 -0.843,-0.102c-0.305,-0.068 -0.512,-0.128 -0.621,-0.183l0.305,-1.36Z" style="fill:#fff;fill-opacity:0.6;fill-rule:nonzero;"/><path d="M245.978,85.488c-0,0.487 0.051,0.937 0.152,1.35c0.102,0.413 0.255,0.771 0.458,1.076c0.203,0.304 0.464,0.545 0.783,0.721c0.318,0.175 0.701,0.263 1.148,0.263c0.393,0 0.773,-0.074 1.139,-0.223c0.366,-0.149 0.644,-0.311 0.833,-0.487l0,-5.948c-0.149,-0.054 -0.355,-0.101 -0.62,-0.142c-0.264,-0.04 -0.627,-0.061 -1.087,-0.061c-0.827,0 -1.501,0.301 -2.023,0.904c-0.522,0.602 -0.783,1.451 -0.783,2.547Zm-1.728,0c-0,-0.758 0.108,-1.441 0.325,-2.05c0.217,-0.609 0.522,-1.127 0.915,-1.553c0.393,-0.426 0.871,-0.754 1.433,-0.985c0.563,-0.23 1.183,-0.345 1.861,-0.345c0.732,0 1.379,0.058 1.941,0.173c0.563,0.115 1.041,0.227 1.434,0.335l-0,12.464l-1.688,-0l0,-3.715c-0.203,0.135 -0.495,0.267 -0.874,0.396c-0.38,0.128 -0.807,0.193 -1.281,0.193c-0.637,-0 -1.206,-0.122 -1.708,-0.366c-0.501,-0.243 -0.925,-0.582 -1.27,-1.015c-0.346,-0.433 -0.614,-0.95 -0.804,-1.553c-0.189,-0.602 -0.284,-1.262 -0.284,-1.979Z" style="fill:#fff;fill-opacity:0.6;fill-rule:nonzero;"/><path d="M257.851,79.297c-0.352,-0 -0.657,-0.122 -0.915,-0.366c-0.257,-0.243 -0.386,-0.575 -0.386,-0.994c0,-0.42 0.129,-0.751 0.386,-0.995c0.258,-0.244 0.563,-0.365 0.915,-0.365c0.366,-0 0.675,0.121 0.925,0.365c0.251,0.244 0.376,0.575 0.376,0.995c0,0.419 -0.125,0.751 -0.376,0.994c-0.25,0.244 -0.559,0.366 -0.925,0.366Zm-0.427,2.862l-2.724,0l-0,-1.401l4.391,0l0,5.786c0,0.933 0.129,1.559 0.387,1.877c0.257,0.318 0.644,0.477 1.159,0.477c0.393,0 0.755,-0.047 1.087,-0.142c0.332,-0.094 0.593,-0.196 0.783,-0.304l0.244,1.421c-0.081,0.04 -0.196,0.091 -0.346,0.152c-0.149,0.061 -0.321,0.118 -0.518,0.173c-0.197,0.054 -0.413,0.101 -0.651,0.142c-0.237,0.04 -0.484,0.061 -0.742,0.061c-0.596,-0 -1.091,-0.082 -1.484,-0.244c-0.393,-0.162 -0.708,-0.406 -0.945,-0.731c-0.237,-0.325 -0.403,-0.727 -0.498,-1.208c-0.095,-0.48 -0.143,-1.038 -0.143,-1.674l0,-4.385Z" style="fill:#fff;fill-opacity:0.6;fill-rule:nonzero;"/><path d="M269.033,80.535c1.274,0 2.257,0.396 2.948,1.188c0.692,0.791 1.037,1.992 1.037,3.603l0,0.588l-6.75,0c0.068,0.975 0.39,1.716 0.966,2.223c0.576,0.508 1.386,0.761 2.43,0.761c0.596,0 1.104,-0.047 1.524,-0.142c0.421,-0.094 0.739,-0.196 0.956,-0.304l0.224,1.421c-0.204,0.108 -0.57,0.223 -1.098,0.345c-0.529,0.122 -1.125,0.183 -1.789,0.183c-0.814,-0 -1.529,-0.126 -2.145,-0.376c-0.617,-0.25 -1.129,-0.592 -1.535,-1.025c-0.407,-0.433 -0.712,-0.951 -0.915,-1.553c-0.204,-0.602 -0.305,-1.255 -0.305,-1.959c-0,-0.839 0.129,-1.57 0.386,-2.192c0.258,-0.623 0.597,-1.137 1.017,-1.543c0.42,-0.406 0.894,-0.71 1.423,-0.913c0.528,-0.203 1.071,-0.305 1.626,-0.305Zm2.277,4.019c0,-0.798 -0.21,-1.431 -0.63,-1.898c-0.42,-0.467 -0.976,-0.7 -1.667,-0.7c-0.393,0 -0.749,0.074 -1.067,0.223c-0.319,0.149 -0.593,0.345 -0.824,0.589c-0.23,0.244 -0.413,0.521 -0.549,0.832c-0.135,0.312 -0.223,0.63 -0.264,0.954l5.001,0Z" style="fill:#fff;fill-opacity:0.6;fill-rule:nonzero;"/><path d="M278.772,85.001c0.366,0.271 0.779,0.612 1.24,1.025c0.461,0.413 0.918,0.856 1.372,1.33c0.455,0.473 0.885,0.957 1.291,1.451c0.407,0.494 0.732,0.951 0.976,1.37l-1.992,0c-0.258,-0.419 -0.576,-0.849 -0.956,-1.289c-0.379,-0.44 -0.782,-0.862 -1.209,-1.268c-0.427,-0.406 -0.854,-0.779 -1.281,-1.117c-0.427,-0.338 -0.81,-0.622 -1.149,-0.852l0,4.526l-1.687,0l-0,-13.783l1.687,-0.284l0,8.586c0.746,-0.649 1.491,-1.295 2.237,-1.938c0.745,-0.643 1.416,-1.309 2.012,-2l1.972,0c-0.582,0.691 -1.284,1.401 -2.104,2.132c-0.82,0.731 -1.623,1.434 -2.409,2.111Z" style="fill:#fff;fill-opacity:0.6;fill-rule:nonzero;"/><path d="M292.821,89.913c-0.366,0.095 -0.851,0.197 -1.454,0.305c-0.603,0.108 -1.311,0.162 -2.125,0.162c-0.718,0 -1.314,-0.105 -1.789,-0.314c-0.474,-0.21 -0.86,-0.508 -1.159,-0.894c-0.298,-0.385 -0.508,-0.842 -0.63,-1.37c-0.122,-0.528 -0.183,-1.109 -0.183,-1.745l0,-5.299l1.667,0l0,4.933c0,1.164 0.173,1.989 0.519,2.477c0.345,0.487 0.925,0.73 1.738,0.73c0.176,0 0.356,-0.006 0.539,-0.02c0.183,-0.013 0.356,-0.03 0.518,-0.051c0.163,-0.02 0.305,-0.04 0.427,-0.061c0.122,-0.02 0.204,-0.037 0.244,-0.05l0,-7.958l1.688,0l-0,9.155Z" style="fill:#fff;fill-opacity:0.6;fill-rule:nonzero;"/><path d="M297.395,81.103c0.203,-0.121 0.498,-0.247 0.885,-0.375c0.386,-0.129 0.816,-0.193 1.291,-0.193c0.637,0 1.206,0.122 1.707,0.365c0.502,0.244 0.925,0.582 1.271,1.015c0.346,0.433 0.61,0.951 0.793,1.553c0.183,0.603 0.274,1.269 0.274,2c0,0.758 -0.108,1.441 -0.325,2.05c-0.217,0.609 -0.522,1.127 -0.915,1.553c-0.393,0.426 -0.867,0.754 -1.423,0.984c-0.556,0.231 -1.172,0.346 -1.85,0.346c-0.746,-0 -1.41,-0.055 -1.993,-0.163c-0.582,-0.108 -1.05,-0.216 -1.402,-0.325l-0,-13.519l1.687,-0.284l0,4.993Zm0,7.613c0.258,0.067 0.515,0.118 0.773,0.152c0.257,0.034 0.501,0.051 0.732,0.051c0.935,-0 1.667,-0.288 2.195,-0.863c0.529,-0.575 0.793,-1.438 0.793,-2.588c0,-0.487 -0.047,-0.944 -0.142,-1.37c-0.095,-0.427 -0.244,-0.792 -0.447,-1.097c-0.204,-0.304 -0.465,-0.544 -0.783,-0.72c-0.319,-0.176 -0.701,-0.264 -1.149,-0.264c-0.393,-0 -0.772,0.078 -1.138,0.233c-0.366,0.156 -0.644,0.322 -0.834,0.498l0,5.968Z" style="fill:#fff;fill-opacity:0.6;fill-rule:nonzero;"/><path id="QueerMap" d="M108.764,50.715c-0,1.381 0.169,2.626 0.508,3.735c0.339,1.11 0.827,2.064 1.464,2.863c0.637,0.798 1.416,1.414 2.338,1.847c0.922,0.433 1.979,0.649 3.172,0.649c1.165,0 2.216,-0.216 3.151,-0.649c0.935,-0.433 1.721,-1.049 2.358,-1.847c0.637,-0.799 1.125,-1.753 1.464,-2.863c0.339,-1.109 0.508,-2.354 0.508,-3.735c0,-1.38 -0.169,-2.632 -0.508,-3.755c-0.339,-1.123 -0.827,-2.084 -1.464,-2.883c-0.637,-0.798 -1.423,-1.414 -2.358,-1.847c-0.935,-0.433 -1.986,-0.649 -3.151,-0.649c-1.193,-0 -2.25,0.223 -3.172,0.669c-0.922,0.447 -1.701,1.069 -2.338,1.868c-0.637,0.798 -1.125,1.759 -1.464,2.882c-0.339,1.124 -0.508,2.362 -0.508,3.715Zm21.51,0c0,1.976 -0.244,3.756 -0.732,5.339c-0.488,1.583 -1.172,2.97 -2.053,4.161c-0.881,1.191 -1.932,2.179 -3.152,2.964c-1.22,0.785 -2.561,1.353 -4.025,1.705c0.135,0.542 0.434,0.981 0.894,1.32c0.461,0.338 1.044,0.615 1.749,0.832c0.705,0.216 1.525,0.379 2.46,0.487c0.935,0.108 1.945,0.203 3.029,0.284l-1.301,4.629c-2.114,-0.082 -3.924,-0.291 -5.428,-0.63c-1.505,-0.338 -2.779,-0.805 -3.823,-1.4c-1.043,-0.596 -1.87,-1.327 -2.48,-2.193c-0.61,-0.866 -1.078,-1.867 -1.403,-3.004c-1.681,-0.217 -3.239,-0.683 -4.676,-1.401c-1.437,-0.717 -2.684,-1.684 -3.741,-2.902c-1.057,-1.218 -1.884,-2.68 -2.48,-4.385c-0.597,-1.705 -0.895,-3.64 -0.895,-5.806c0,-2.409 0.38,-4.527 1.139,-6.353c0.759,-1.827 1.782,-3.363 3.07,-4.608c1.287,-1.245 2.778,-2.179 4.473,-2.802c1.694,-0.622 3.476,-0.934 5.347,-0.934c1.924,0 3.741,0.312 5.448,0.934c1.708,0.623 3.199,1.557 4.473,2.802c1.274,1.245 2.277,2.781 3.009,4.608c0.732,1.826 1.098,3.944 1.098,6.353Z" style="fill:#fff;fill-rule:nonzero;"/><path d="M153.411,64.072c-1.03,0.298 -2.359,0.575 -3.985,0.833c-1.627,0.257 -3.334,0.385 -5.124,0.385c-1.816,0 -3.327,-0.243 -4.533,-0.731c-1.207,-0.487 -2.162,-1.17 -2.867,-2.05c-0.705,-0.879 -1.206,-1.928 -1.505,-3.146c-0.298,-1.218 -0.447,-2.558 -0.447,-4.019l0,-11.896l6.059,0l-0,11.165c-0,1.948 0.257,3.356 0.772,4.222c0.515,0.866 1.478,1.299 2.887,1.299c0.434,0 0.895,-0.02 1.383,-0.061c0.488,-0.04 0.922,-0.088 1.301,-0.142l0,-16.483l6.059,0l-0,20.624Z" style="fill:#fff;fill-rule:nonzero;"/><path d="M158.087,54.288c-0,-1.895 0.291,-3.552 0.874,-4.973c0.583,-1.421 1.349,-2.606 2.298,-3.553c0.948,-0.947 2.039,-1.664 3.273,-2.152c1.233,-0.487 2.501,-0.73 3.802,-0.73c3.036,-0 5.435,0.927 7.197,2.781c1.762,1.854 2.643,4.581 2.643,8.18c-0,0.352 -0.014,0.738 -0.041,1.157c-0.027,0.42 -0.054,0.792 -0.081,1.117l-13.744,-0c0.136,1.245 0.719,2.233 1.749,2.964c1.03,0.73 2.412,1.096 4.147,1.096c1.112,-0 2.203,-0.102 3.273,-0.305c1.071,-0.203 1.945,-0.453 2.623,-0.751l0.813,4.913c-0.325,0.162 -0.759,0.324 -1.301,0.487c-0.542,0.162 -1.145,0.304 -1.809,0.426c-0.664,0.122 -1.376,0.223 -2.135,0.305c-0.759,0.081 -1.518,0.121 -2.277,0.121c-1.925,0 -3.599,-0.284 -5.022,-0.852c-1.423,-0.569 -2.602,-1.347 -3.537,-2.335c-0.936,-0.988 -1.627,-2.158 -2.074,-3.511c-0.447,-1.354 -0.671,-2.815 -0.671,-4.385Zm14.232,-2.314c-0.028,-0.514 -0.116,-1.015 -0.265,-1.502c-0.149,-0.488 -0.379,-0.921 -0.691,-1.3c-0.312,-0.378 -0.705,-0.69 -1.179,-0.933c-0.475,-0.244 -1.064,-0.366 -1.769,-0.366c-0.678,0 -1.26,0.115 -1.748,0.345c-0.488,0.23 -0.895,0.535 -1.22,0.914c-0.326,0.379 -0.576,0.819 -0.753,1.319c-0.176,0.501 -0.305,1.009 -0.386,1.523l8.011,-0Z" style="fill:#fff;fill-rule:nonzero;"/><path d="M181.834,54.288c-0,-1.895 0.291,-3.552 0.874,-4.973c0.583,-1.421 1.348,-2.606 2.297,-3.553c0.949,-0.947 2.04,-1.664 3.273,-2.152c1.234,-0.487 2.501,-0.73 3.802,-0.73c3.036,-0 5.436,0.927 7.198,2.781c1.762,1.854 2.643,4.581 2.643,8.18c-0,0.352 -0.014,0.738 -0.041,1.157c-0.027,0.42 -0.054,0.792 -0.081,1.117l-13.744,-0c0.135,1.245 0.718,2.233 1.748,2.964c1.03,0.73 2.413,1.096 4.148,1.096c1.111,-0 2.202,-0.102 3.273,-0.305c1.071,-0.203 1.945,-0.453 2.623,-0.751l0.813,4.913c-0.325,0.162 -0.759,0.324 -1.301,0.487c-0.542,0.162 -1.145,0.304 -1.81,0.426c-0.664,0.122 -1.375,0.223 -2.134,0.305c-0.759,0.081 -1.518,0.121 -2.277,0.121c-1.925,0 -3.599,-0.284 -5.022,-0.852c-1.423,-0.569 -2.603,-1.347 -3.538,-2.335c-0.935,-0.988 -1.626,-2.158 -2.074,-3.511c-0.447,-1.354 -0.67,-2.815 -0.67,-4.385Zm14.231,-2.314c-0.027,-0.514 -0.115,-1.015 -0.264,-1.502c-0.149,-0.488 -0.38,-0.921 -0.691,-1.3c-0.312,-0.378 -0.705,-0.69 -1.18,-0.933c-0.474,-0.244 -1.063,-0.366 -1.768,-0.366c-0.678,0 -1.261,0.115 -1.749,0.345c-0.488,0.23 -0.894,0.535 -1.22,0.914c-0.325,0.379 -0.576,0.819 -0.752,1.319c-0.176,0.501 -0.305,1.009 -0.386,1.523l8.01,-0Z" style="fill:#fff;fill-rule:nonzero;"/><path d="M219.487,48.807c-0.543,-0.135 -1.18,-0.277 -1.912,-0.426c-0.731,-0.149 -1.518,-0.223 -2.358,-0.223c-0.379,-0 -0.833,0.033 -1.362,0.101c-0.529,0.068 -0.929,0.142 -1.2,0.223l0,16.321l-6.058,0l-0,-20.218c1.084,-0.379 2.365,-0.738 3.842,-1.076c1.478,-0.338 3.124,-0.508 4.941,-0.508c0.325,0 0.718,0.021 1.179,0.061c0.461,0.041 0.922,0.095 1.382,0.163c0.461,0.067 0.922,0.149 1.383,0.243c0.461,0.095 0.854,0.21 1.179,0.345l-1.016,4.994Z" style="fill:#fff;fill-rule:nonzero;"/><path d="M231.645,36.668c0.488,0.893 1.05,1.996 1.687,3.309c0.637,1.313 1.301,2.734 1.992,4.263c0.692,1.529 1.376,3.092 2.054,4.689c0.678,1.597 1.315,3.099 1.911,4.506c0.596,-1.407 1.233,-2.909 1.911,-4.506c0.678,-1.597 1.362,-3.16 2.054,-4.689c0.691,-1.529 1.355,-2.95 1.992,-4.263c0.637,-1.313 1.2,-2.416 1.688,-3.309l5.774,0c0.271,1.868 0.521,3.958 0.752,6.273c0.23,2.314 0.433,4.723 0.61,7.226c0.176,2.504 0.339,5.014 0.488,7.531c0.149,2.517 0.277,4.886 0.386,7.105l-6.181,0c-0.081,-2.734 -0.189,-5.711 -0.325,-8.932c-0.136,-3.221 -0.339,-6.468 -0.61,-9.743c-0.488,1.136 -1.03,2.395 -1.626,3.775c-0.597,1.381 -1.186,2.761 -1.769,4.141c-0.583,1.381 -1.146,2.7 -1.688,3.959c-0.542,1.258 -1.003,2.334 -1.382,3.227l-4.432,0c-0.38,-0.893 -0.841,-1.969 -1.383,-3.227c-0.542,-1.259 -1.105,-2.578 -1.687,-3.959c-0.583,-1.38 -1.173,-2.76 -1.769,-4.141c-0.597,-1.38 -1.139,-2.639 -1.627,-3.775c-0.271,3.275 -0.474,6.522 -0.61,9.743c-0.135,3.221 -0.244,6.198 -0.325,8.932l-6.18,0c0.108,-2.219 0.237,-4.588 0.386,-7.105c0.149,-2.517 0.312,-5.027 0.488,-7.531c0.176,-2.503 0.379,-4.912 0.61,-7.226c0.23,-2.315 0.481,-4.405 0.752,-6.273l6.059,0Z" style="fill:#fff;fill-rule:nonzero;"/><path d="M268.403,60.581c0.596,-0 1.166,-0.014 1.708,-0.041c0.542,-0.027 0.976,-0.068 1.301,-0.122l0,-4.587c-0.244,-0.054 -0.61,-0.109 -1.098,-0.163c-0.488,-0.054 -0.935,-0.081 -1.342,-0.081c-0.569,0 -1.104,0.034 -1.606,0.102c-0.501,0.067 -0.942,0.196 -1.321,0.385c-0.38,0.19 -0.678,0.447 -0.895,0.772c-0.217,0.324 -0.325,0.73 -0.325,1.218c-0,0.947 0.318,1.603 0.955,1.969c0.637,0.365 1.512,0.548 2.623,0.548Zm-0.488,-17.701c1.789,-0 3.28,0.203 4.473,0.609c1.193,0.406 2.148,0.988 2.867,1.745c0.718,0.758 1.226,1.678 1.524,2.761c0.299,1.083 0.448,2.287 0.448,3.613l-0,12.586c-0.868,0.19 -2.074,0.413 -3.619,0.67c-1.545,0.257 -3.416,0.386 -5.612,0.386c-1.382,-0 -2.636,-0.122 -3.761,-0.366c-1.125,-0.243 -2.094,-0.643 -2.907,-1.197c-0.813,-0.555 -1.437,-1.279 -1.871,-2.172c-0.433,-0.894 -0.65,-1.99 -0.65,-3.289c-0,-1.245 0.251,-2.301 0.752,-3.167c0.502,-0.866 1.172,-1.556 2.013,-2.07c0.84,-0.514 1.803,-0.887 2.887,-1.117c1.084,-0.23 2.209,-0.345 3.375,-0.345c0.786,0 1.484,0.034 2.094,0.102c0.61,0.067 1.105,0.155 1.484,0.264l0,-0.569c0,-1.028 -0.312,-1.854 -0.935,-2.476c-0.624,-0.623 -1.708,-0.934 -3.253,-0.934c-1.03,-0 -2.047,0.074 -3.05,0.223c-1.003,0.149 -1.87,0.359 -2.602,0.629l-0.773,-4.871c0.353,-0.109 0.793,-0.224 1.322,-0.345c0.528,-0.122 1.104,-0.231 1.728,-0.325c0.623,-0.095 1.281,-0.176 1.972,-0.244c0.691,-0.067 1.389,-0.101 2.094,-0.101Z" style="fill:#fff;fill-rule:nonzero;"/><path d="M296.419,54.288c0,-1.868 -0.42,-3.363 -1.26,-4.486c-0.841,-1.123 -2.088,-1.685 -3.741,-1.685c-0.542,-0 -1.044,0.02 -1.505,0.061c-0.461,0.04 -0.84,0.088 -1.138,0.142l-0,10.921c0.379,0.244 0.874,0.447 1.484,0.609c0.61,0.162 1.227,0.244 1.85,0.244c2.874,-0 4.31,-1.936 4.31,-5.806Zm6.181,-0.162c-0,1.651 -0.203,3.153 -0.61,4.506c-0.407,1.353 -1.003,2.517 -1.789,3.492c-0.786,0.974 -1.762,1.732 -2.928,2.273c-1.166,0.541 -2.507,0.812 -4.025,0.812c-0.841,0 -1.627,-0.081 -2.359,-0.244c-0.732,-0.162 -1.437,-0.392 -2.114,-0.69l-0,8.039l-6.059,-0l0,-28.135c0.542,-0.163 1.166,-0.318 1.871,-0.467c0.704,-0.149 1.443,-0.277 2.216,-0.386c0.772,-0.108 1.558,-0.196 2.358,-0.264c0.8,-0.067 1.566,-0.101 2.297,-0.101c1.762,-0 3.335,0.264 4.717,0.792c1.383,0.527 2.548,1.272 3.497,2.232c0.949,0.961 1.674,2.132 2.176,3.512c0.501,1.381 0.752,2.923 0.752,4.629Z" style="fill:#fff;fill-rule:nonzero;"/></g></g></svg>